<?xml version="1.0" encoding="utf-8"?>
<!-- Generator: Adobe Illustrator 17.1.0, SVG Export Plug-In . SVG Version: 6.00 Build 0)  -->
<!DOCTYPE svg PUBLIC "-//W3C//DTD SVG 1.1//EN" "http://www.w3.org/Graphics/SVG/1.1/DTD/svg11.dtd">
<svg version="1.1" id="Layer_1" xmlns="http://www.w3.org/2000/svg" xmlns:xlink="http://www.w3.org/1999/xlink" x="0px" y="0px"
	 viewBox="0 0 63.3 62.3" enable-background="new 0 0 63.3 62.3" xml:space="preserve">
<g>
	<path fill="#FFFFFF" d="M63,59.1c0,1.6-1.3,2.9-2.9,2.9H43.9l0.1,0.4h-9.7l0-0.4h-31c-1.6,0-2.9-1.3-2.9-2.9V3.2
		c0-1.6,1.3-2.9,2.9-2.9h56.9c1.6,0,2.9,1.3,2.9,2.9L63,59.1L63,59.1z"/>
	<g>
		<path fill="#1E417C" d="M63,59.1V3.2c0-1.6-1.3-2.9-2.9-2.9H55H8.3H3.2c-1.6,0-2.8,1.3-2.9,2.8V54l0,5.1c0,1.6,1.3,2.9,2.9,2.9
			h31.6V37.2h-8.2v-8.5h8.2v-9.3c0-5.5,5-9.3,9.1-9.3H53v7.8h-4.2c-2.1,0-4.8,1.7-4.8,3.8v7h8.2v8.5H44V62h11h5.1
			C61.7,62,63,60.7,63,59.1z"/>
		<path fill="#1E417C" d="M60.1,62.3H43.6V36.9h8.2v-7.8h-8.2v-7.4c0-2.2,2.9-4.1,5.2-4.1h3.9v-7h-8.8c-3.6,0-8.7,3.4-8.7,8.9v9.6
			H27v7.8h8.2v25.5h-32c-1.8,0-3.2-1.4-3.2-3.2L0,3.2C0,1.4,1.5,0,3.2,0h56.9c1.8,0,3.2,1.4,3.2,3.2v55.9
			C63.3,60.9,61.9,62.3,60.1,62.3z M44.3,61.6h15.8c1.4,0,2.5-1.1,2.5-2.5V3.2c0-1.4-1.1-2.5-2.5-2.5H3.2c-1.4,0-2.5,1.1-2.5,2.5
			l0,55.9c0,1.4,1.1,2.5,2.5,2.5h31.2v-24h-8.2v-9.2h8.2v-8.9c0-5.5,5-9.6,9.4-9.6h9.5v8.5h-4.6c-2,0-4.5,1.6-4.5,3.4v6.7h8.2v9.2
			h-8.2V61.6z"/>
	</g>
</g>
</svg>
